<?xml version="1.0" standalone="no"?>
<!DOCTYPE svg PUBLIC "-//W3C//DTD SVG 20010904//EN"
 "http://www.w3.org/TR/2001/REC-SVG-20010904/DTD/svg10.dtd">
<svg version="1.0" xmlns="http://www.w3.org/2000/svg"
 width="560.000000pt" height="560.000000pt" viewBox="0 0 560.000000 560.000000"
 preserveAspectRatio="xMidYMid meet">
<metadata>
Created by potrace 1.11, written by Peter Selinger 2001-2013
</metadata>
<g transform="translate(0.000000,560.000000) scale(0.100000,-0.100000)"
fill="#000000" stroke="none">
<path d="M2608 4845 c-2 -2 -29 -6 -61 -9 -281 -30 -601 -140 -851 -293 -395
-243 -687 -588 -860 -1016 -31 -77 -81 -233 -91 -288 -45 -228 -50 -276 -50
-474 1 -293 39 -502 137 -753 52 -134 157 -334 215 -411 6 -9 38 -52 71 -96
123 -166 316 -348 500 -472 112 -74 343 -191 453 -228 100 -34 148 -29 182 16
18 24 19 43 18 235 -1 114 -3 209 -5 212 -2 2 -31 -2 -65 -8 -83 -15 -223 -15
-296 0 -93 19 -193 70 -251 127 -38 37 -67 83 -110 168 -31 64 -72 133 -91
153 -18 21 -33 40 -33 43 0 3 -36 32 -80 65 -118 87 -120 128 -6 131 114 3
246 -81 331 -213 101 -158 219 -227 380 -223 82 2 119 9 191 36 37 13 42 20
48 52 9 57 45 141 83 190 18 24 33 47 33 51 0 3 -17 7 -37 8 -166 10 -409 92
-543 183 -169 115 -287 297 -335 518 -3 11 -7 29 -9 39 -28 124 -27 386 3 497
26 98 81 210 143 291 46 61 47 61 33 100 -43 125 -34 325 21 473 l17 44 71 -6
c115 -10 297 -83 450 -181 49 -31 79 -38 104 -23 4 3 24 8 44 11 21 3 57 10
80 15 84 18 176 25 343 26 199 0 350 -14 453 -44 17 -5 32 -8 32 -6 0 3 11 0
25 -5 21 -8 37 -2 107 41 167 101 306 156 424 166 l70 5 17 -44 c55 -143 64
-334 23 -470 l-13 -45 49 -63 c60 -78 109 -179 139 -285 20 -69 23 -102 22
-240 0 -108 -6 -186 -17 -240 -10 -44 -19 -89 -21 -100 -19 -88 -91 -238 -152
-314 -108 -135 -234 -216 -435 -282 -98 -31 -135 -40 -253 -55 -33 -4 -63 -7
-67 -6 -14 4 -8 -6 22 -39 16 -18 39 -54 51 -79 52 -110 52 -112 55 -509 2
-352 4 -376 22 -400 33 -45 81 -49 181 -16 134 46 395 181 496 257 193 145
308 256 449 428 21 26 133 193 155 230 115 199 219 479 246 666 4 21 11 68 17
104 28 168 15 506 -27 700 -9 41 -18 85 -21 97 -2 12 -20 71 -40 130 -191 570
-615 1027 -1177 1267 -139 59 -240 90 -432 131 -5 1 -32 5 -60 9 -27 4 -63 10
-80 13 -31 5 -432 13 -437 8z"/>
<path d="M1434 1878 c-9 -14 23 -38 42 -31 19 7 18 29 -2 37 -23 9 -32 7 -40
-6z"/>
<path d="M1527 1813 c-20 -19 12 -66 39 -56 10 3 12 12 8 27 -9 29 -33 44 -47
29z"/>
<path d="M1604 1696 c-8 -21 14 -56 36 -56 28 0 34 18 16 45 -18 28 -44 33
-52 11z"/>
<path d="M1702 1564 c4 -37 38 -59 63 -40 18 13 18 15 2 40 -11 17 -26 26 -43
26 -22 0 -25 -4 -22 -26z"/>
<path d="M1843 1483 c-8 -21 30 -53 57 -46 30 8 34 22 14 44 -21 23 -62 25
-71 2z"/>
<path d="M2202 1489 c-28 -11 -40 -38 -21 -50 25 -17 78 6 79 33 0 15 -36 25
-58 17z"/>
<path d="M2023 1464 c-14 -10 -16 -17 -7 -31 6 -10 20 -19 30 -21 27 -4 56 20
49 40 -8 21 -51 29 -72 12z"/>
</g>
</svg>
